<svg aria-hidden="true" style="position: absolute; width: 0; height: 0; overflow: hidden;" version="1.1" xmlns="http://www.w3.org/2000/svg" xmlns:xlink="http://www.w3.org/1999/xlink">
<defs>
<symbol id="icon-socialmysocialtwitter" viewBox="0 0 32 32">
<path d="M27.36 8.634c-0.455 0.205-0.995 0.389-1.554 0.524l-0.064 0.013c0.599-0.559 1.057-1.26 1.322-2.050l0.010-0.035c0.075-0.228-0.178-0.426-0.387-0.304-0.712 0.424-1.537 0.769-2.409 0.992l-0.065 0.014c-0.046 0.011-0.099 0.018-0.153 0.018-0.166 0-0.318-0.061-0.434-0.163l0.001 0.001c-0.89-0.772-2.060-1.243-3.339-1.243-0.003 0-0.006 0-0.009 0h0c-0.534 0-1.074 0.082-1.603 0.243-1.641 0.501-2.907 1.831-3.303 3.474-0.097 0.376-0.152 0.807-0.152 1.251 0 0.205 0.012 0.407 0.035 0.606l-0.002-0.024c0.001 0.006 0.001 0.012 0.001 0.019 0 0.046-0.018 0.088-0.047 0.12l0-0c-0.035 0.039-0.085 0.063-0.14 0.063-0.006 0-0.012-0-0.018-0.001l0.001 0c-3.684-0.332-6.896-2.117-9.099-4.77l-0.018-0.022c-0.049-0.059-0.123-0.096-0.205-0.096-0.096 0-0.181 0.051-0.228 0.128l-0.001 0.001c-0.448 0.757-0.685 1.621-0.685 2.502 0 1.348 0.55 2.62 1.507 3.547-0.437-0.103-0.821-0.254-1.177-0.451l0.024 0.012c-0.037-0.021-0.082-0.034-0.129-0.034-0.144 0-0.261 0.115-0.264 0.257v0c-0.025 2.005 1.168 3.788 2.955 4.591-0.032 0.001-0.071 0.001-0.109 0.001-0.301 0-0.595-0.029-0.88-0.085l0.029 0.005c-0.015-0.003-0.033-0.005-0.051-0.005-0.145 0-0.262 0.117-0.262 0.262 0 0.028 0.004 0.054 0.012 0.079l-0-0.002c0.58 1.781 2.14 3.094 4.005 3.392-1.465 0.979-3.266 1.563-5.204 1.563-0.009 0-0.017 0-0.026-0h-0.583c-0.002-0-0.004-0-0.005-0-0.178 0-0.328 0.12-0.373 0.284l-0.001 0.003c-0.007 0.028-0.011 0.059-0.011 0.092 0 0.147 0.081 0.275 0.201 0.342l0.002 0.001c2.003 1.164 4.408 1.851 6.974 1.851 0 0 0.001 0 0.001 0h-0c2.145 0 4.151-0.418 5.963-1.244 1.715-0.793 3.166-1.877 4.353-3.203l0.011-0.013c1.116-1.243 2.020-2.703 2.639-4.305l0.033-0.096c0.593-1.561 0.907-3.227 0.907-4.817v-0.075c0-0.256 0.117-0.496 0.323-0.659 0.775-0.622 1.44-1.338 1.99-2.139l0.022-0.034c0.147-0.217-0.085-0.487-0.327-0.382z"></path>
</symbol>
<symbol id="icon-socialmysocialfacebook" viewBox="0 0 32 32">
<path d="M18.207 26.667h-4.139v-10.001h-2.068v-3.445h2.068v-2.069c0-2.812 1.167-4.484 4.484-4.484h2.763v3.447h-1.727c-1.291 0-1.376 0.481-1.376 1.38l-0.006 1.725h3.127l-0.366 3.445h-2.763v10.002h0.002z"></path>
</symbol>
<symbol id="icon-socialmysocialinstagram" viewBox="0 0 32 32">
<path d="M16.001 3.2c-3.476 0-3.913 0.015-5.278 0.077-1.363 0.063-2.293 0.278-3.107 0.595-0.887 0.339-1.643 0.841-2.266 1.475l-0.001 0.001c-0.635 0.624-1.137 1.38-1.463 2.224l-0.015 0.043c-0.318 0.814-0.533 1.745-0.595 3.107-0.061 1.365-0.077 1.801-0.077 5.278 0 3.476 0.015 3.911 0.077 5.277 0.064 1.362 0.278 2.293 0.595 3.106 0.339 0.887 0.841 1.644 1.475 2.267l0.001 0.001c0.623 0.635 1.38 1.138 2.224 1.463l0.043 0.015c0.814 0.317 1.745 0.532 3.107 0.594 1.365 0.063 1.802 0.078 5.277 0.078 3.477 0 3.911-0.015 5.277-0.078 1.363-0.062 2.294-0.277 3.108-0.594 0.887-0.339 1.643-0.842 2.266-1.476l0.001-0.001c0.635-0.624 1.137-1.38 1.463-2.224l0.015-0.043c0.315-0.815 0.53-1.745 0.594-3.107 0.062-1.365 0.078-1.801 0.078-5.277s-0.016-3.913-0.078-5.278c-0.064-1.362-0.279-2.293-0.594-3.106-0.34-0.887-0.842-1.644-1.476-2.267l-0.001-0.001c-0.623-0.635-1.379-1.137-2.224-1.462l-0.043-0.014c-0.816-0.317-1.747-0.532-3.109-0.595-1.365-0.062-1.801-0.077-5.278-0.077h0.004zM14.853 5.506h1.147c3.418 0 3.823 0.013 5.172 0.075 1.248 0.057 1.925 0.265 2.377 0.441 0.597 0.231 1.024 0.509 1.471 0.957 0.448 0.448 0.725 0.875 0.958 1.472 0.175 0.451 0.384 1.129 0.441 2.377 0.062 1.349 0.075 1.755 0.075 5.17 0 3.417-0.013 3.822-0.075 5.171-0.057 1.248-0.266 1.925-0.441 2.375-0.233 0.597-0.51 1.023-0.958 1.471s-0.874 0.725-1.471 0.957c-0.45 0.176-1.129 0.384-2.377 0.442-1.349 0.061-1.755 0.075-5.172 0.075s-3.823-0.014-5.172-0.075c-1.248-0.058-1.925-0.267-2.377-0.442-0.577-0.216-1.069-0.542-1.471-0.956l-0.001-0.001c-0.415-0.403-0.741-0.895-0.949-1.445l-0.009-0.027c-0.176-0.45-0.384-1.127-0.441-2.375-0.062-1.349-0.075-1.755-0.075-5.173 0-3.418 0.013-3.821 0.075-5.17 0.057-1.248 0.265-1.925 0.441-2.377 0.231-0.597 0.51-1.024 0.958-1.472s0.875-0.725 1.472-0.958c0.451-0.176 1.129-0.384 2.377-0.442 1.181-0.053 1.638-0.069 4.025-0.071v0.002zM22.834 7.632c-0.848 0-1.536 0.688-1.536 1.536s0.688 1.536 1.536 1.536v0c0.848 0 1.536-0.688 1.536-1.536s-0.688-1.536-1.536-1.536v0zM16 9.427c-0.025-0-0.054-0.001-0.083-0.001-3.631 0-6.574 2.943-6.574 6.574s2.943 6.574 6.574 6.574c0.030 0 0.059-0 0.089-0.001l-0.004 0c3.594-0.048 6.49-2.972 6.49-6.573s-2.896-6.526-6.486-6.573l-0.004-0zM16 11.733c2.356 0 4.267 1.91 4.267 4.267s-1.91 4.267-4.267 4.267v0c-2.356 0-4.267-1.91-4.267-4.267s1.91-4.267 4.267-4.267v0z"></path>
</symbol>
</defs>
</svg>
